<?xml version="1.0" encoding="utf-8"?>
<!-- Generator: Adobe Illustrator 19.0.0, SVG Export Plug-In . SVG Version: 6.00 Build 0)  -->
<svg version="1.1" xmlns="http://www.w3.org/2000/svg" xmlns:xlink="http://www.w3.org/1999/xlink" x="0px" y="0px"
	 viewBox="0 0 288 162" style="enable-background:new 0 0 288 162;" xml:space="preserve">
<style type="text/css">
	.st0{display:none;}
	.st1{display:inline;}
	.st2{fill:#231F20;}
	.st3{fill:#010101;}
</style>
<g id="Layer_2" class="st0">
	<g id="QwiTJ2_1_" class="st1">
		<image style="overflow:visible;" width="288" height="162" id="QwiTJ2_2_" xlink:href="C14E48D86B838606.jpg" >
		</image>
	</g>
	<g id="QwiTJ2_3_" class="st1">
		
			<image style="overflow:visible;" width="288" height="162" id="QwiTJ2_4_" xlink:href="C14E48D86B83860A.jpg"  transform="matrix(1 0 0 1 0 103.2062)">
		</image>
	</g>
</g>
<g id="Layer_1">
	<path d="M139.3,42.1c0,1,0.6,1.5,2,1.5c0.7,0,1.4-0.1,1.9-0.6c0.3-0.3,0.4-0.8,0.4-1.5v-0.9h-2.4C139.9,40.6,139.3,41.1,139.3,42.1
		z"/>
	<path d="M171.3,19.6c-0.2-0.3-0.5-0.6-1-0.8c-0.4-0.2-0.9-0.3-1.4-0.3c-0.5,0-1,0.1-1.4,0.3c-0.4,0.2-0.7,0.5-1,0.8
		c-0.3,0.4-0.4,0.8-0.6,1.3c-0.1,0.5-0.2,1.3-0.2,2.4c0,1.1,0.1,1.9,0.2,2.4c0.1,0.5,0.3,1,0.6,1.3c0.3,0.3,0.6,0.6,1,0.8
		c0.4,0.2,0.9,0.3,1.4,0.3c0.5,0,1-0.1,1.4-0.3c0.4-0.2,0.8-0.5,1-0.8c0.3-0.4,0.5-0.8,0.6-1.3c0.1-0.5,0.1-1.3,0.1-2.3
		c0-1.1,0-1.9-0.1-2.4C171.8,20.4,171.6,19.9,171.3,19.6z"/>
	<path d="M140.3,19.1c-0.6-0.6-1.3-0.9-2.2-0.9c-0.9,0-1.6,0.3-2.2,0.9c-0.6,0.6-0.9,1.5-0.9,2.7h6.3
		C141.2,20.7,140.9,19.8,140.3,19.1z"/>
	<path d="M166.3,37c-0.9,0-1.7,0.5-2,1.3c-0.2,0.5-0.2,0.7-0.3,1.4h4.5c0-0.7-0.1-1-0.3-1.4C168,37.5,167.2,37,166.3,37z"/>
	<path d="M246.2,4.8H41.8c-12.3,0-22.3,10-22.3,22.3v0c0,12.3,10,22.3,22.3,22.3h204.5c12.3,0,22.3-10,22.3-22.3v0
		C268.5,14.9,258.5,4.8,246.2,4.8z M113.7,44.6h-1.3v-5.3c0-1.5-0.8-2.3-2.1-2.3c-1.3,0-2.1,0.8-2.1,2.1v5.4h-1.3v-5.3
		c0-1.5-0.8-2.3-2.1-2.3c-1.3,0-2.1,0.8-2.1,2.3v5.3h-1.3V36h1.3v0.9c0.6-0.7,1.5-1,2.4-1c1.2,0,2.1,0.5,2.6,1.4
		c0.7-0.9,1.6-1.4,2.8-1.4c0.9,0,1.7,0.3,2.2,0.8c0.6,0.6,0.9,1.4,0.9,2.4V44.6z M118.9,46.7c-0.2,0.5-0.4,0.8-0.6,1
		c-0.5,0.4-1.1,0.6-1.7,0.6h-0.5v-1.1h0.4c0.9,0,1.1-0.3,1.4-1.1l0.6-1.7l-3.1-8.4h1.4l2.4,6.9l2.3-6.9h1.4L118.9,46.7z M127.9,30.9
		h-3.2v-9.5h-8.3v9.5h-3.2V9.3h3.2v9.3h8.3V9.3h3.2V30.9z M135.7,44.6h-1.3v-5.3c0-1.5-0.8-2.3-2.1-2.3s-2.1,0.8-2.1,2.3v5.3h-1.3
		V36h1.3v0.9c0.6-0.7,1.4-1,2.4-1c0.9,0,1.7,0.3,2.2,0.8c0.6,0.6,0.9,1.4,0.9,2.4V44.6z M135.1,30.3c-0.4-0.2-0.7-0.4-1-0.7
		c-0.6-0.6-1.1-1.4-1.5-2.4c-0.4-1-0.6-2.3-0.6-3.9c0-1.5,0.2-2.8,0.6-3.8c0.4-1,0.9-1.8,1.4-2.4c0.6-0.6,1.3-1,2-1.3
		c0.7-0.3,1.4-0.4,2.2-0.4c1.7,0,3.1,0.6,4.3,1.7c1.2,1.2,1.8,2.8,1.8,4.8v2.5h-9.3c0,1.2,0.3,2.2,1,2.8c0.6,0.7,1.5,1,2.5,1
		c1.2,0,2.3-0.5,3.3-1.5l2.2,1.9c-1.5,1.7-3.3,2.5-5.4,2.5c-0.8,0-1.6-0.1-2.3-0.4C135.9,30.6,135.5,30.5,135.1,30.3z M144.9,44.6
		h-1.3v-0.8c-0.7,0.7-1.3,0.9-2.5,0.9c-1.2,0-1.9-0.2-2.4-0.8c-0.4-0.4-0.6-1.1-0.6-1.7c0-1.5,1-2.5,3-2.5h2.6v-0.8
		c0-1.3-0.6-1.9-2.2-1.9c-1.1,0-1.7,0.3-2.2,1l-0.9-0.8c0.8-1,1.6-1.3,3-1.3c2.3,0,3.4,1,3.4,2.9V44.6z M147.8,9.3h3V27
		c0,0.7,0.4,1.1,1.1,1.1h1v2.9h-1.3c-1.1,0-2-0.3-2.7-0.8c-0.7-0.6-1.1-1.5-1.1-2.9V9.3z M160.2,44.6H159v-5.3
		c0-1.5-0.8-2.3-2.1-2.3c-1.3,0-2.1,0.8-2.1,2.1v5.4h-1.3v-5.3c0-1.5-0.8-2.3-2.1-2.3s-2.1,0.8-2.1,2.3v5.3h-1.3V36h1.3v0.9
		c0.6-0.7,1.5-1,2.4-1c1.2,0,2.1,0.5,2.6,1.4c0.7-0.9,1.6-1.4,2.8-1.4c0.9,0,1.7,0.3,2.2,0.8c0.6,0.6,0.9,1.4,0.9,2.4V44.6z
		 M160.8,30.9h-1.3c-1.1,0-2-0.3-2.7-0.8c-0.7-0.6-1.1-1.5-1.1-2.9V9.3h3V27c0,0.7,0.4,1.1,1.1,1.1h1V30.9z M169.9,40.6h-5.8
		c0,1.9,0.9,3,2.5,3c1,0,1.6-0.3,2.3-1l0.9,0.8c-0.9,0.9-1.7,1.3-3.1,1.3c-2.3,0-3.8-1.4-3.8-4.4c0-2.8,1.3-4.4,3.5-4.4
		c2.2,0,3.5,1.6,3.5,4.2V40.6z M174.7,26.9c-0.2,0.9-0.7,1.6-1.3,2.2c-0.2,0.2-0.4,0.5-0.7,0.7c-0.2,0.2-0.6,0.5-1,0.6
		c-0.7,0.4-1.7,0.6-2.9,0.7c-1.1,0-2.1-0.2-2.8-0.7c-0.7-0.4-1.3-0.8-1.7-1.3c-0.6-0.6-1-1.4-1.2-2.2c-0.3-0.9-0.4-2.1-0.4-3.7
		c0-1.6,0.1-2.9,0.4-3.7c0.3-0.9,0.7-1.6,1.2-2.2c0.4-0.5,1-1,1.7-1.4c0.7-0.4,1.7-0.6,2.8-0.6c1.2,0,2.1,0.2,2.9,0.6
		c0.7,0.4,1.3,0.9,1.7,1.4c0.6,0.6,1,1.3,1.3,2.2c0.2,0.9,0.4,2.1,0.4,3.7C175.1,24.9,174.9,26.1,174.7,26.9z M178.1,44.6h-1.3V36
		h1.3V44.6z M178.2,33.5h-1.4v-1.4h1.4V33.5z M184,44.7c-1.5,0-2.6-0.3-3.5-1.2l0.8-0.8c0.7,0.7,1.6,1,2.7,1c1.4,0,2.3-0.5,2.3-1.5
		c0-0.8-0.4-1.2-1.4-1.3l-1.4-0.1c-1.7-0.1-2.6-0.9-2.6-2.3c0-1.6,1.3-2.5,3.2-2.5c1.2,0,2.3,0.3,3.1,0.9l-0.8,0.8
		c-0.6-0.5-1.4-0.7-2.3-0.7c-1.3,0-1.9,0.5-1.9,1.4c0,0.7,0.4,1.2,1.5,1.3l1.4,0.1c1.5,0.1,2.5,0.7,2.5,2.3
		C187.5,43.7,186.1,44.7,184,44.7z"/>
	<path id="XMLID_2_" class="st2" d="M252.2,149.6c-1.3,0-2.7-0.1-3.9-0.4c-1.3-0.3-2.5-0.6-3.7-1.1c-1.2-0.5-2.3-1.1-3.3-1.8
		c-1-0.7-2-1.5-2.9-2.4c-0.9-0.9-1.7-1.9-2.4-2.9c-0.7-1-1.3-2.2-1.8-3.3c-0.5-1.2-0.9-2.4-1.1-3.7c-0.3-1.3-0.4-2.6-0.4-3.9
		c0-1.3,0.1-2.7,0.4-3.9c0.3-1.3,0.6-2.5,1.1-3.7c0.5-1.2,1.1-2.3,1.8-3.3c0.7-1,1.5-2,2.4-2.9c0.9-0.9,1.9-1.7,2.9-2.4
		c1-0.7,2.2-1.3,3.3-1.8c1.2-0.5,2.4-0.9,3.7-1.1c1.3-0.3,2.6-0.4,3.9-0.4c1.3,0,2.7,0.1,3.9,0.4c1.3,0.3,2.5,0.6,3.7,1.1
		c1.2,0.5,2.3,1.1,3.3,1.8c1,0.7,2,1.5,2.9,2.4c0.9,0.9,1.7,1.9,2.4,2.9c0.7,1,1.3,2.2,1.8,3.3c0.5,1.2,0.9,2.4,1.1,3.7
		c0.3,1.3,0.4,2.6,0.4,3.9c0,1.3-0.1,2.7-0.4,3.9c-0.3,1.3-0.6,2.5-1.1,3.7c-0.5,1.2-1.1,2.3-1.8,3.3c-0.7,1-1.5,2-2.4,2.9
		c-0.9,0.9-1.9,1.7-2.9,2.4c-1,0.7-2.2,1.3-3.3,1.8c-1.2,0.5-2.4,0.9-3.7,1.1C254.8,149.5,253.5,149.6,252.2,149.6z M252.2,111.3
		c-1.3,0-2.5,0.1-3.8,0.4c-1.2,0.2-2.4,0.6-3.5,1.1c-1.1,0.5-2.2,1.1-3.2,1.7c-1,0.7-1.9,1.4-2.8,2.3s-1.6,1.8-2.3,2.8
		c-0.7,1-1.3,2.1-1.7,3.2c-0.5,1.1-0.8,2.3-1.1,3.5c-0.3,1.2-0.4,2.5-0.4,3.8c0,1.3,0.1,2.5,0.4,3.8c0.2,1.2,0.6,2.4,1.1,3.5
		c0.5,1.1,1.1,2.2,1.7,3.2c0.7,1,1.4,1.9,2.3,2.8s1.8,1.6,2.8,2.3c1,0.7,2.1,1.3,3.2,1.7c1.1,0.5,2.3,0.8,3.5,1.1
		c1.2,0.3,2.5,0.4,3.8,0.4c1.3,0,2.5-0.1,3.8-0.4c1.2-0.2,2.4-0.6,3.5-1.1c1.1-0.5,2.2-1.1,3.2-1.7c1-0.7,1.9-1.4,2.8-2.3
		s1.6-1.8,2.3-2.8c0.7-1,1.3-2.1,1.7-3.2c0.5-1.1,0.8-2.3,1.1-3.5c0.3-1.2,0.4-2.5,0.4-3.8c0-1.3-0.1-2.5-0.4-3.8
		c-0.2-1.2-0.6-2.4-1.1-3.5c-0.5-1.1-1.1-2.2-1.7-3.2c-0.7-1-1.4-1.9-2.3-2.8s-1.8-1.6-2.8-2.3c-1-0.7-2.1-1.3-3.2-1.7
		c-1.1-0.5-2.3-0.8-3.5-1.1C254.7,111.4,253.4,111.3,252.2,111.3z"/>
	<path id="XMLID_4_" class="st3" d="M267.6,131.6c-0.3,0-0.5,0.1-0.7,0.3l-5.7-2.8l5.4-0.4c0.1,0.3,0.4,0.5,0.8,0.5
		c0.5,0,0.8-0.4,0.8-0.8c0-0.5-0.4-0.8-0.8-0.8c-0.4,0-0.7,0.3-0.8,0.6l-5.8,0.5c-0.1-0.2-0.3-0.3-0.5-0.3c-0.3,0-0.5,0.1-0.6,0.4
		l-11.2,0.9c-0.1-0.4-0.5-0.7-1-0.7c-0.5,0-0.8,0.3-1,0.7l-6.1-0.5c-0.1-0.4-0.5-0.7-0.9-0.7c-0.3,0-0.6,0.2-0.8,0.4l-2.6-0.8
		c-0.1-0.2-0.3-0.4-0.5-0.4c-0.3,0-0.5,0.2-0.5,0.5s0.2,0.5,0.5,0.5c0.1,0,0.2,0,0.3-0.1l2.6,0.8c0,0.3,0.2,0.6,0.4,0.8l-1,3.5
		c-0.3,0-0.6,0.3-0.6,0.7c0,0.4,0.3,0.7,0.7,0.7c0.4,0,0.7-0.3,0.7-0.7c0-0.2-0.1-0.4-0.2-0.5l1-3.5c0.4,0,0.7-0.2,0.8-0.6l6.1,0.5
		c0,0.2,0.1,0.3,0.2,0.5l-1.1,1.4c-0.1,0-0.1,0-0.2,0c-0.4,0-0.8,0.3-0.8,0.8c0,0.4,0.3,0.8,0.8,0.8c0.4,0,0.8-0.3,0.8-0.8
		c0-0.1,0-0.3-0.1-0.4l1.1-1.4c0.1,0.1,0.3,0.1,0.4,0.1c0.5,0,1-0.4,1-0.9l11.1-0.9c0.1,0.2,0.3,0.4,0.6,0.4c0.2,0,0.3-0.1,0.4-0.2
		l5.9,2.9c0,0,0,0.1,0,0.1c0,0.5,0.4,0.9,0.9,0.9c0.5,0,0.9-0.4,0.9-0.9C268.5,132,268.1,131.6,267.6,131.6z"/>
	<path id="XMLID_32_" class="st3" d="M238.9,127.4h2.9c0.2,0,0.3-0.1,0.3-0.3s-0.1-0.3-0.3-0.3h-2.6v-6c0-0.2-0.1-0.3-0.3-0.3
		c-0.2,0-0.3,0.1-0.3,0.3v6.2C238.6,127.3,238.7,127.4,238.9,127.4z"/>
	<path id="XMLID_35_" class="st3" d="M242.6,121.8h0.4l-0.7,5.3c0,0.2,0.1,0.3,0.2,0.3c0,0,0,0,0,0c0.1,0,0.3-0.1,0.3-0.2l0.7-5.4h1
		l0.7,5.4c0,0.2,0.2,0.3,0.3,0.2c0.2,0,0.3-0.2,0.2-0.3l-1.4-11.2c0-0.1-0.1-0.2-0.3-0.2c0,0,0,0,0,0c-0.1,0-0.3,0.1-0.3,0.2
		l-0.7,5.4h-0.5c-0.2,0-0.3,0.1-0.3,0.3S242.5,121.8,242.6,121.8z M244.1,118.1l0.4,3.1h-0.8L244.1,118.1z"/>
	<path id="XMLID_36_" class="st3" d="M246.3,142.9h-3.3v-10.8c0-0.2-0.1-0.3-0.3-0.3s-0.3,0.1-0.3,0.3v11c0,0.2,0.1,0.3,0.3,0.3h3.6
		c0.2,0,0.3-0.1,0.3-0.3C246.5,143.1,246.4,142.9,246.3,142.9z"/>
	<path id="XMLID_39_" class="st3" d="M249.9,132.1c0-0.1-0.1-0.2-0.3-0.2c0,0,0,0,0,0c-0.1,0-0.3,0.1-0.3,0.2l-0.9,6.8h-0.7
		c-0.2,0-0.3,0.1-0.3,0.3c0,0.2,0.1,0.3,0.3,0.3h0.6l-0.9,6.7c0,0.2,0.1,0.3,0.2,0.3c0,0,0,0,0,0c0.1,0,0.3-0.1,0.3-0.2l0.9-6.8h1.3
		l0.8,6.8c0,0.2,0.2,0.3,0.3,0.2c0.2,0,0.3-0.2,0.2-0.3L249.9,132.1z M249,138.9l0.6-4.5l0.6,4.5H249z"/>
	<path id="XMLID_40_" class="st3" d="M246.9,127.4c0.2,0,0.3-0.1,0.3-0.3v-9.8l2.4,9.8c0,0.1,0.1,0.2,0.3,0.2c0,0,0,0,0,0
		c0.1,0,0.2-0.1,0.2-0.3V115c0-0.2-0.1-0.3-0.3-0.3c-0.2,0-0.3,0.1-0.3,0.3v9.8l-2.4-9.8c0-0.1-0.2-0.2-0.3-0.2
		c-0.1,0-0.2,0.1-0.2,0.3v12.1C246.7,127.3,246.8,127.4,246.9,127.4z"/>
	<path id="XMLID_41_" class="st3" d="M263,127.4c0.2,0,0.3-0.1,0.3-0.3v-4.3l2.4,4.5c0,0.1,0.1,0.1,0.2,0.1c0,0,0,0,0.1,0
		c0.1,0,0.2-0.1,0.2-0.3v-5.5c0-0.2-0.1-0.3-0.3-0.3s-0.3,0.1-0.3,0.3v4.3l-2.4-4.5c-0.1-0.1-0.2-0.2-0.3-0.1
		c-0.1,0-0.2,0.1-0.2,0.3v5.5C262.7,127.3,262.8,127.4,263,127.4z"/>
	<path id="XMLID_42_" class="st3" d="M252.6,127.4c1,0,1.7-0.8,1.7-2v-4.9c0-0.2-0.1-0.3-0.3-0.3h-1.5c-0.2,0-0.3,0.1-0.3,0.3
		c0,0.2,0.1,0.3,0.3,0.3h1.2v4.6c0,0.9-0.5,1.5-1.2,1.5s-1.2-0.6-1.2-1.5v-9.8c0-0.9,0.5-1.5,1.2-1.5s1.2,0.6,1.2,1.5
		c0,0.2,0.1,0.3,0.3,0.3s0.3-0.1,0.3-0.3c0-1.2-0.7-2-1.7-2s-1.7,0.8-1.7,2v9.8C250.9,126.6,251.6,127.4,252.6,127.4z"/>
	<path id="XMLID_43_" class="st3" d="M255,115.3h1.2v11.8c0,0.2,0.1,0.3,0.3,0.3s0.3-0.1,0.3-0.3v-11.8h1.2c0.2,0,0.3-0.1,0.3-0.3
		c0-0.2-0.1-0.3-0.3-0.3H255c-0.2,0-0.3,0.1-0.3,0.3C254.7,115.2,254.8,115.3,255,115.3z"/>
	<path id="XMLID_46_" class="st3" d="M260.2,127.4c1,0,1.7-0.8,1.7-1.7v-7.6c0-1-0.8-1.7-1.7-1.7c-1,0-1.7,0.8-1.7,1.7v7.6
		C258.5,126.6,259.2,127.4,260.2,127.4z M259,118.1c0-0.6,0.5-1.2,1.2-1.2c0.6,0,1.2,0.5,1.2,1.2v7.6c0,0.6-0.5,1.2-1.2,1.2
		c-0.6,0-1.2-0.5-1.2-1.2V118.1z"/>
	<path id="XMLID_49_" class="st3" d="M255.6,131.9h-1.8c-0.2,0-0.3,0.1-0.3,0.3v2.1v9.7v2.1c0,0.2,0.1,0.3,0.3,0.3h1.8
		c1.2,0,2.1-1.1,2.1-2.4v-2.7c0-0.6-0.2-1.2-0.6-1.7c-0.2-0.2-0.3-0.3-0.5-0.5c0.7-0.4,1.1-1.2,1.1-2.1v-2.7c0-0.6-0.2-1.2-0.6-1.7
		C256.7,132.1,256.2,131.9,255.6,131.9z M256.7,140c0.3,0.4,0.5,0.8,0.5,1.3v2.7c0,1-0.7,1.9-1.5,1.9h-1.5V144v-4.6h1.5
		C256,139.4,256.4,139.6,256.7,140z M257.2,137c0,1-0.7,1.9-1.5,1.9h-1.5v-4.6v-1.9h1.5c0.4,0,0.8,0.2,1.1,0.5
		c0.3,0.4,0.5,0.8,0.5,1.3V137z"/>
	<path id="XMLID_51_" class="st3" d="M263.3,140.3c0-1-1.7-2.6-1.9-2.8c-0.5-0.4-1.7-1.8-1.7-2.6v-0.7c0-1,0.7-1.8,1.5-1.8
		c0.8,0,1.5,0.8,1.5,1.8c0,0.2,0.1,0.3,0.3,0.3s0.3-0.1,0.3-0.3c0-1.3-0.9-2.3-2.1-2.3c-1.2,0-2.1,1-2.1,2.3v0.7
		c0,1.2,1.7,2.8,1.9,3c0.7,0.6,1.7,1.8,1.7,2.4l0,0.1c0,0.3,0,0.5,0,0.8c0,1-0.7,1.8-1.5,1.8c-0.8,0-1.5-0.8-1.5-1.8
		c0-0.2-0.1-0.3-0.3-0.3c-0.2,0-0.3,0.1-0.3,0.3c0,1.3,0.9,2.3,2.1,2.3c1.2,0,2.1-1,2.1-2.3C263.3,140.9,263.3,140.6,263.3,140.3
		L263.3,140.3z"/>
</g>
</svg>
